<?xml version="1.0" encoding="UTF-8"?>
<svg id="Layer_1" xmlns="http://www.w3.org/2000/svg" version="1.1" viewBox="0 0 923.18 475.16">
  <!-- Generator: Adobe Illustrator 29.7.1, SVG Export Plug-In . SVG Version: 2.1.1 Build 8)  -->
  <defs>
    <style>
      .st0 {
        fill: #d97706;
      }

      .st1 {
        fill: #dbdcd7;
      }

      .st2 {
        fill: #1a4d2e;
      }
    </style>
  </defs>
  <path class="st2" d="M640.38,166.19v48.75c-.27,4.89-1.87,21.76-16.45,36.47-14.52,14.65-35.7,19.75-57.12,21.22v126.18h-71.16v-126.18c-21.42-1.47-42.6-6.57-57.12-21.22-14.59-14.71-16.19-31.58-16.45-36.47v-48.75c0-13.26,11.08-24.68,25.47-25.27,15.28-.62,27.89,10.59,27.89,24.5v32.17c0,13.19-.39,29.87,18.73,31.29.5,0,.98-.02,1.48-.02v-121.88c0-17.77,15.03-32.94,34.35-33.53,20.21-.62,36.8,14.24,36.8,32.66v122.75c.5,0,1,.02,1.48.02,19.12-1.42,18.73-18.1,18.73-31.29v-32.17c0-13.91,12.61-25.13,27.89-24.5,14.39.59,25.47,12.01,25.47,25.27Z"/>
  <path class="st1" d="M497.87,247.23l-.37,4.89c-9.29-.6-26.68-3.25-38.99-14.24-1.87-1.67-5.34-4.77-8.11-9.86-3.56-6.54-3.81-12.6-4.13-20.99-.12-3.11-.04-5.02.11-7.91.09-2.3.23-5.17.32-9.82.07-3.91.12-7.36.14-10.22l-12.22-.08,15.07-23.62,14.75,23.8-12.26-.08c-.02,2.88-.07,6.36-.14,10.3-.11,4.71-.23,7.6-.34,9.94-.12,2.86-.2,4.61-.09,7.52.36,9.04.64,13.63,3.56,18.96,2.37,4.35,5.43,7.08,7.06,8.53,11.08,9.91,27.09,12.33,35.65,12.88Z"/>
  <path class="st1" d="M568.03,247.23l.37,4.89c9.29-.6,26.68-3.25,38.99-14.24,1.87-1.67,5.34-4.77,8.11-9.86,3.56-6.54,3.81-12.6,4.13-20.99.12-3.11.04-5.02-.11-7.91-.09-2.3-.23-5.17-.32-9.82-.07-3.91-.12-7.36-.14-10.22l12.22-.08-15.07-23.62-14.75,23.8,12.26-.08c.02,2.88.07,6.36.14,10.3.11,4.71.23,7.6.34,9.94.12,2.86.2,4.61.09,7.52-.36,9.04-.64,13.63-3.56,18.96-2.37,4.35-5.43,7.08-7.06,8.53-11.08,9.91-27.09,12.33-35.65,12.88Z"/>
  <path class="st1" d="M533.9,387.6h-5.34v-17.94h5.34v17.94ZM533.9,358.9h-5.34v-17.94h5.34v17.94ZM533.9,330.2h-5.34v-17.94h5.34v17.94ZM533.9,301.5h-5.34v-17.94h5.34v17.94ZM533.9,272.8h-5.34v-17.94h5.34v17.94ZM533.9,244.1h-5.34v-17.94h5.34v17.94ZM533.9,215.41h-5.34v-17.94h5.34v17.94ZM533.9,186.7h-5.34v-17.94h5.34v17.94ZM533.9,158.01h-5.34v-17.94h5.34v17.94Z"/>
  <polygon class="st1" points="512.87 128.67 531.23 97.77 549.59 128.67 512.87 128.67"/>
  <path class="st2" d="M113.29,401.72c-14.38,0-27.15-2.77-38.31-8.31-11.16-5.54-19.92-13.22-26.29-23.05-6.37-9.83-9.55-20.98-9.55-33.47s3.18-23.79,9.55-33.47c6.36-9.67,15.13-17.32,26.29-22.93,11.16-5.62,23.93-8.43,38.31-8.43s26.33,2.77,36.83,8.31c10.5,5.54,18.06,13.38,22.69,23.52l-29.76,15.45c-3.64-5.93-8.02-10.26-13.14-12.99-5.13-2.73-10.75-4.09-16.86-4.09-6.45,0-12.32,1.37-17.61,4.09-5.29,2.73-9.51,6.67-12.65,11.82-3.14,5.15-4.71,11.39-4.71,18.72s1.57,13.61,4.71,18.84c3.14,5.23,7.36,9.21,12.65,11.94,5.29,2.73,11.16,4.1,17.61,4.1,6.11,0,11.74-1.36,16.86-4.1,5.12-2.73,9.51-7.14,13.14-13.22l29.76,15.45c-4.63,9.99-12.19,17.79-22.69,23.4-10.5,5.62-22.78,8.43-36.83,8.43Z"/>
  <path class="st2" d="M296.55,285.64c-11.24-9.04-27.03-13.57-47.36-13.57-10.59,0-21,1.29-31.25,3.86-10.25,2.58-19.01,6.36-26.29,11.35l13.64,25.51c4.96-3.59,10.87-6.43,17.73-8.54,6.86-2.11,13.85-3.16,20.96-3.16,10.41,0,18.14,2.19,23.19,6.55,5.04,4.37,7.56,10.46,7.56,18.26v.23h-30.5c-13.73,0-24.8,1.56-33.23,4.68-8.44,3.12-14.6,7.53-18.48,13.22-3.89,5.7-5.83,12.21-5.83,19.55s2.03,13.65,6.08,19.42c4.05,5.77,9.79,10.34,17.23,13.69,7.44,3.35,16.29,5.03,26.54,5.03,11.74,0,21.33-2.14,28.77-6.43,5.03-2.9,8.99-6.6,11.9-11.1v15.66h36.21v-71.85c0-19.19-5.63-33.31-16.87-42.36ZM263.69,372.94c-5.2,2.81-11.12,4.21-17.73,4.21s-11.86-1.36-15.74-4.1c-3.89-2.72-5.83-6.43-5.83-11.11,0-4.22,1.69-7.73,5.08-10.53,3.39-2.81,9.63-4.22,18.72-4.22h26.54v12.88c-2.15,5.77-5.83,10.06-11.04,12.87Z"/>
  <path class="st2" d="M413.85,401.72c-14.38,0-27.15-2.77-38.31-8.31-11.16-5.54-19.92-13.22-26.29-23.05-6.37-9.83-9.55-20.98-9.55-33.47s3.18-23.79,9.55-33.47c6.36-9.67,15.13-17.32,26.29-22.93,11.16-5.62,23.93-8.43,38.31-8.43s26.33,2.77,36.83,8.31c10.5,5.54,18.06,13.38,22.69,23.52l-29.76,15.45c-3.64-5.93-8.02-10.26-13.14-12.99-5.13-2.73-10.75-4.09-16.86-4.09-6.45,0-12.32,1.37-17.61,4.09-5.29,2.73-9.51,6.67-12.65,11.82-3.14,5.15-4.71,11.39-4.71,18.72s1.57,13.61,4.71,18.84c3.14,5.23,7.36,9.21,12.65,11.94,5.29,2.73,11.16,4.1,17.61,4.1,6.11,0,11.74-1.36,16.86-4.1,5.12-2.73,9.51-7.14,13.14-13.22l29.76,15.45c-4.63,9.99-12.19,17.79-22.69,23.4-10.5,5.62-22.78,8.43-36.83,8.43Z"/>
  <path class="st0" d="M740.2,273.94v125.91h-36.7v-14.92c-3.68,4.12-8.07,7.5-13.14,10.12-8.6,4.45-18.03,6.67-28.28,6.67-11.24,0-21.16-2.02-29.76-6.08-8.59-4.06-15.29-10.3-20.08-18.72-4.8-8.43-7.19-19.04-7.19-31.83v-71.15h38.68v65.53c0,10.61,2.36,18.37,7.07,23.29,4.71,4.91,11.36,7.37,19.96,7.37,5.95,0,11.24-1.25,15.87-3.75,4.63-2.49,8.31-6.23,11.04-11.23,2.73-4.99,4.09-11.23,4.09-18.72v-62.49h38.44Z"/>
  <path class="st0" d="M821.05,401.72c-11.41,0-22.32-1.29-32.74-3.86-10.41-2.58-18.77-5.81-25.05-9.71l12.65-25.98c6.28,3.43,13.6,6.28,21.95,8.54,8.35,2.26,16.57,3.39,24.67,3.39,8.93,0,15.25-1.01,18.97-3.04,3.72-2.03,5.58-4.83,5.58-8.43,0-2.96-1.45-5.19-4.34-6.67-2.89-1.48-6.7-2.61-11.41-3.39-4.71-.78-9.96-1.56-15.75-2.34-5.79-.78-11.53-1.87-17.23-3.28-5.7-1.4-11-3.39-15.87-5.97-4.88-2.57-8.77-6.12-11.66-10.65-2.89-4.52-4.34-10.37-4.34-17.55,0-7.96,2.48-15.01,7.44-21.18,4.96-6.16,11.98-10.96,21.08-14.39,9.09-3.43,20.09-5.15,32.98-5.15,9.26,0,18.56.98,27.9,2.92,9.34,1.95,17.23,4.64,23.68,8.07l-13.14,25.98c-6.29-3.43-12.69-5.85-19.22-7.25-6.53-1.4-12.77-2.11-18.72-2.11-8.93,0-15.38,1.09-19.34,3.28-3.97,2.19-5.95,5-5.95,8.43,0,3.12,1.49,5.5,4.46,7.14,2.98,1.64,6.86,2.85,11.66,3.63,4.79.78,10.08,1.56,15.87,2.34,5.78.78,11.49,1.87,17.11,3.28,5.62,1.4,10.87,3.39,15.75,5.97,4.87,2.57,8.76,6.12,11.65,10.65,2.89,4.53,4.34,10.38,4.34,17.55,0,7.65-2.48,14.47-7.44,20.48-4.96,6.01-12.11,10.73-21.45,14.16-9.34,3.43-20.71,5.15-34.1,5.15Z"/>
</svg>